<?xml version="1.0" encoding="UTF-8" standalone="no"?>
<!DOCTYPE svg PUBLIC "-//W3C//DTD SVG 1.1//EN"
 "http://www.w3.org/Graphics/SVG/1.1/DTD/svg11.dtd">
<!-- Generated by graphviz version 8.1.0 (20230707.0739)
 -->
<!-- Pages: 1 -->
<svg width="2108pt" height="980pt"
 viewBox="0.00 0.00 2108.43 980.00" xmlns="http://www.w3.org/2000/svg" xmlns:xlink="http://www.w3.org/1999/xlink">
<g id="graph0" class="graph" transform="scale(1 1) rotate(0) translate(4 976)">
<polygon fill="white" stroke="none" points="-4,4 -4,-976 2104.43,-976 2104.43,4 -4,4"/>
<!-- nd -->
<g id="node1" class="node">
<title>nd</title>
<ellipse fill="none" stroke="black" cx="281" cy="-882" rx="27" ry="18"/>
<text text-anchor="middle" x="281" y="-876.95" font-family="Times,serif" font-size="14.00">nd</text>
</g>
<!-- fs -->
<g id="node2" class="node">
<title>fs</title>
<ellipse fill="none" stroke="black" cx="226" cy="-810" rx="27" ry="18"/>
<text text-anchor="middle" x="226" y="-804.95" font-family="Times,serif" font-size="14.00">fs</text>
</g>
<!-- nd&#45;&gt;fs -->
<g id="edge1" class="edge">
<title>nd&#45;&gt;fs</title>
<path fill="none" stroke="black" d="M268.79,-865.46C261.74,-856.49 252.73,-845.02 244.79,-834.92"/>
<polygon fill="black" stroke="black" points="247.1,-833.19 238.17,-827.49 241.6,-837.52 247.1,-833.19"/>
</g>
<!-- QZ -->
<g id="node4" class="node">
<title>QZ</title>
<ellipse fill="none" stroke="black" cx="253" cy="-738" rx="27" ry="18"/>
<text text-anchor="middle" x="253" y="-732.95" font-family="Times,serif" font-size="14.00">QZ</text>
</g>
<!-- fs&#45;&gt;QZ -->
<g id="edge65" class="edge">
<title>fs&#45;&gt;QZ</title>
<path fill="none" stroke="black" d="M232.54,-792.05C235.55,-784.23 239.21,-774.75 242.59,-765.98"/>
<polygon fill="black" stroke="black" points="246.19,-767.38 246.52,-756.79 239.66,-764.86 246.19,-767.38"/>
</g>
<!-- sj -->
<g id="node15" class="node">
<title>sj</title>
<ellipse fill="none" stroke="black" cx="27" cy="-666" rx="27" ry="18"/>
<text text-anchor="middle" x="27" y="-660.95" font-family="Times,serif" font-size="14.00">sj</text>
</g>
<!-- fs&#45;&gt;sj -->
<g id="edge66" class="edge">
<title>fs&#45;&gt;sj</title>
<path fill="none" stroke="black" d="M207.99,-796.15C172.84,-771.07 94.95,-715.48 53.75,-686.09"/>
<polygon fill="black" stroke="black" points="56,-682.68 45.83,-679.72 51.93,-688.38 56,-682.68"/>
</g>
<!-- ql -->
<g id="node3" class="node">
<title>ql</title>
<ellipse fill="none" stroke="black" cx="207" cy="-306" rx="27" ry="18"/>
<text text-anchor="middle" x="207" y="-300.95" font-family="Times,serif" font-size="14.00">ql</text>
</g>
<!-- ql&#45;&gt;QZ -->
<g id="edge2" class="edge">
<title>ql&#45;&gt;QZ</title>
<path fill="none" stroke="black" d="M212.33,-323.85C220.2,-350.25 234,-403.08 234,-449 234,-595 234,-595 234,-595 234,-635 241.5,-680.79 247.08,-709.31"/>
<polygon fill="black" stroke="black" points="243.83,-709.94 249.25,-719.05 250.7,-708.55 243.83,-709.94"/>
</g>
<!-- QZ&#45;&gt;nd -->
<g id="edge40" class="edge">
<title>QZ&#45;&gt;nd</title>
<path fill="none" stroke="black" d="M256.39,-756.19C261.15,-780.32 269.86,-824.5 275.54,-853.3"/>
<polygon fill="black" stroke="black" points="272.25,-853.74 277.62,-862.87 279.12,-852.38 272.25,-853.74"/>
</g>
<!-- QZ&#45;&gt;sj -->
<g id="edge41" class="edge">
<title>QZ&#45;&gt;sj</title>
<path fill="none" stroke="black" d="M227.88,-730.78C192.03,-721.67 124.3,-703.67 68,-684 65.07,-682.98 62.04,-681.85 59.02,-680.69"/>
<polygon fill="black" stroke="black" points="60.54,-677.12 49.95,-676.64 57.93,-683.62 60.54,-677.12"/>
</g>
<!-- zt -->
<g id="node25" class="node">
<title>zt</title>
<ellipse fill="none" stroke="black" cx="346" cy="-522" rx="27" ry="18"/>
<text text-anchor="middle" x="346" y="-516.95" font-family="Times,serif" font-size="14.00">zt</text>
</g>
<!-- QZ&#45;&gt;zt -->
<g id="edge42" class="edge">
<title>QZ&#45;&gt;zt</title>
<path fill="none" stroke="black" d="M257.47,-719.96C265.69,-689.93 284.7,-626 310,-576 314.94,-566.23 321.4,-556.14 327.49,-547.42"/>
<polygon fill="black" stroke="black" points="330.85,-549.74 333.85,-539.58 325.17,-545.65 330.85,-549.74"/>
</g>
<!-- sk -->
<g id="node26" class="node">
<title>sk</title>
<ellipse fill="none" stroke="black" cx="420" cy="-450" rx="27" ry="18"/>
<text text-anchor="middle" x="420" y="-444.95" font-family="Times,serif" font-size="14.00">sk</text>
</g>
<!-- QZ&#45;&gt;sk -->
<g id="edge43" class="edge">
<title>QZ&#45;&gt;sk</title>
<path fill="none" stroke="black" d="M280.23,-735.74C314.45,-732.56 372.19,-721.58 401,-684 447.43,-623.45 435.91,-526.18 426.52,-478.77"/>
<polygon fill="black" stroke="black" points="429.76,-478.17 424.27,-469.11 422.91,-479.62 429.76,-478.17"/>
</g>
<!-- gp -->
<g id="node43" class="node">
<title>gp</title>
<ellipse fill="none" stroke="black" cx="346" cy="-594" rx="27" ry="18"/>
<text text-anchor="middle" x="346" y="-588.95" font-family="Times,serif" font-size="14.00">gp</text>
</g>
<!-- QZ&#45;&gt;gp -->
<g id="edge44" class="edge">
<title>QZ&#45;&gt;gp</title>
<path fill="none" stroke="black" d="M263.49,-720.99C279.62,-696.35 310.65,-648.97 329.72,-619.85"/>
<polygon fill="black" stroke="black" points="333.14,-622.02 335.69,-611.74 327.29,-618.19 333.14,-622.02"/>
</g>
<!-- GC -->
<g id="node44" class="node">
<title>GC</title>
<ellipse fill="none" stroke="black" cx="817" cy="-666" rx="27" ry="18"/>
<text text-anchor="middle" x="817" y="-660.95" font-family="Times,serif" font-size="14.00">GC</text>
</g>
<!-- QZ&#45;&gt;GC -->
<g id="edge45" class="edge">
<title>QZ&#45;&gt;GC</title>
<path fill="none" stroke="black" d="M279.45,-733.72C370.75,-722.39 672.93,-684.88 779.44,-671.66"/>
<polygon fill="black" stroke="black" points="779.79,-675.02 789.28,-670.32 778.93,-668.07 779.79,-675.02"/>
</g>
<!-- vh -->
<g id="node45" class="node">
<title>vh</title>
<ellipse fill="none" stroke="black" cx="365" cy="-666" rx="27" ry="18"/>
<text text-anchor="middle" x="365" y="-660.95" font-family="Times,serif" font-size="14.00">vh</text>
</g>
<!-- QZ&#45;&gt;vh -->
<g id="edge46" class="edge">
<title>QZ&#45;&gt;vh</title>
<path fill="none" stroke="black" d="M269.14,-723.5C286.17,-711.84 313.05,-694.98 334.11,-682.72"/>
<polygon fill="black" stroke="black" points="335.68,-685.28 342.62,-677.27 332.2,-679.2 335.68,-685.28"/>
</g>
<!-- gz -->
<g id="node5" class="node">
<title>gz</title>
<ellipse fill="none" stroke="black" cx="1223" cy="-306" rx="27" ry="18"/>
<text text-anchor="middle" x="1223" y="-300.95" font-family="Times,serif" font-size="14.00">gz</text>
</g>
<!-- vv -->
<g id="node6" class="node">
<title>vv</title>
<ellipse fill="none" stroke="black" cx="1185" cy="-234" rx="27" ry="18"/>
<text text-anchor="middle" x="1185" y="-228.95" font-family="Times,serif" font-size="14.00">vv</text>
</g>
<!-- gz&#45;&gt;vv -->
<g id="edge3" class="edge">
<title>gz&#45;&gt;vv</title>
<path fill="none" stroke="black" d="M1214.19,-288.76C1209.68,-280.46 1204.08,-270.15 1199,-260.79"/>
<polygon fill="black" stroke="black" points="1201.61,-259.27 1193.77,-252.15 1195.46,-262.61 1201.61,-259.27"/>
</g>
<!-- mq -->
<g id="node21" class="node">
<title>mq</title>
<ellipse fill="none" stroke="black" cx="1166" cy="-162" rx="27" ry="18"/>
<text text-anchor="middle" x="1166" y="-156.95" font-family="Times,serif" font-size="14.00">mq</text>
</g>
<!-- vv&#45;&gt;mq -->
<g id="edge13" class="edge">
<title>vv&#45;&gt;mq</title>
<path fill="none" stroke="black" d="M1180.4,-216.05C1178.3,-208.32 1175.76,-198.96 1173.4,-190.27"/>
<polygon fill="black" stroke="black" points="1176.55,-189.52 1170.56,-180.79 1169.8,-191.36 1176.55,-189.52"/>
</g>
<!-- DB -->
<g id="node22" class="node">
<title>DB</title>
<ellipse fill="none" stroke="black" cx="1263" cy="-810" rx="27" ry="18"/>
<text text-anchor="middle" x="1263" y="-804.95" font-family="Times,serif" font-size="14.00">DB</text>
</g>
<!-- vv&#45;&gt;DB -->
<g id="edge14" class="edge">
<title>vv&#45;&gt;DB</title>
<path fill="none" stroke="black" d="M1181.64,-251.97C1176.69,-278.52 1168,-331.56 1168,-377 1168,-667 1168,-667 1168,-667 1168,-717.27 1209.63,-763.21 1237.78,-788.53"/>
<polygon fill="black" stroke="black" points="1235.18,-791.77 1245.02,-795.7 1239.77,-786.49 1235.18,-791.77"/>
</g>
<!-- lg -->
<g id="node7" class="node">
<title>lg</title>
<ellipse fill="none" stroke="black" cx="756" cy="-882" rx="27" ry="18"/>
<text text-anchor="middle" x="756" y="-876.95" font-family="Times,serif" font-size="14.00">lg</text>
</g>
<!-- zx -->
<g id="node8" class="node">
<title>zx</title>
<ellipse fill="none" stroke="black" cx="788" cy="-810" rx="27" ry="18"/>
<text text-anchor="middle" x="788" y="-804.95" font-family="Times,serif" font-size="14.00">zx</text>
</g>
<!-- lg&#45;&gt;zx -->
<g id="edge4" class="edge">
<title>lg&#45;&gt;zx</title>
<path fill="none" stroke="black" d="M763.58,-864.41C767.29,-856.3 771.84,-846.35 776,-837.25"/>
<polygon fill="black" stroke="black" points="779.5,-839.02 780.47,-828.47 773.13,-836.11 779.5,-839.02"/>
</g>
<!-- LX -->
<g id="node9" class="node">
<title>LX</title>
<ellipse fill="none" stroke="black" cx="724" cy="-738" rx="27" ry="18"/>
<text text-anchor="middle" x="724" y="-732.95" font-family="Times,serif" font-size="14.00">LX</text>
</g>
<!-- lg&#45;&gt;LX -->
<g id="edge5" class="edge">
<title>lg&#45;&gt;LX</title>
<path fill="none" stroke="black" d="M747.74,-864.43C739.76,-840.54 729.42,-796.08 724.81,-767.02"/>
<polygon fill="black" stroke="black" points="728.17,-766.76 723.3,-757.35 721.24,-767.74 728.17,-766.76"/>
</g>
<!-- zx&#45;&gt;LX -->
<g id="edge84" class="edge">
<title>zx&#45;&gt;LX</title>
<path fill="none" stroke="black" d="M774.43,-794.15C765.86,-784.78 754.61,-772.48 744.92,-761.88"/>
<polygon fill="black" stroke="black" points="747.88,-759.84 738.55,-754.82 742.72,-764.57 747.88,-759.84"/>
</g>
<!-- hf -->
<g id="node19" class="node">
<title>hf</title>
<ellipse fill="none" stroke="black" cx="927" cy="-666" rx="27" ry="18"/>
<text text-anchor="middle" x="927" y="-660.95" font-family="Times,serif" font-size="14.00">hf</text>
</g>
<!-- zx&#45;&gt;hf -->
<g id="edge85" class="edge">
<title>zx&#45;&gt;hf</title>
<path fill="none" stroke="black" d="M802.35,-794.34C826.83,-769.34 876.76,-718.32 905.45,-689.02"/>
<polygon fill="black" stroke="black" points="907.44,-691.96 911.93,-682.37 902.44,-687.07 907.44,-691.96"/>
</g>
<!-- LX&#45;&gt;lg -->
<g id="edge100" class="edge">
<title>LX&#45;&gt;lg</title>
<path fill="none" stroke="black" d="M732.15,-755.24C740.13,-779.02 750.53,-823.67 755.17,-852.86"/>
<polygon fill="black" stroke="black" points="751.82,-853.18 756.69,-862.59 758.75,-852.2 751.82,-853.18"/>
</g>
<!-- LX&#45;&gt;hf -->
<g id="edge101" class="edge">
<title>LX&#45;&gt;hf</title>
<path fill="none" stroke="black" d="M748.35,-729.67C780.23,-719.94 837.71,-701.88 886,-684 888.75,-682.98 891.59,-681.89 894.43,-680.77"/>
<polygon fill="black" stroke="black" points="895.61,-683.66 903.57,-676.67 892.98,-677.17 895.61,-683.66"/>
</g>
<!-- fn -->
<g id="node24" class="node">
<title>fn</title>
<ellipse fill="none" stroke="black" cx="646" cy="-378" rx="27" ry="18"/>
<text text-anchor="middle" x="646" y="-372.95" font-family="Times,serif" font-size="14.00">fn</text>
</g>
<!-- LX&#45;&gt;fn -->
<g id="edge102" class="edge">
<title>LX&#45;&gt;fn</title>
<path fill="none" stroke="black" d="M704.66,-725.19C672.14,-703.67 610,-654.75 610,-595 610,-595 610,-595 610,-521 610,-479.91 624.34,-434.13 634.92,-405.94"/>
<polygon fill="black" stroke="black" points="638.54,-407.29 638.89,-396.7 632.01,-404.76 638.54,-407.29"/>
</g>
<!-- VG -->
<g id="node46" class="node">
<title>VG</title>
<ellipse fill="none" stroke="black" cx="999" cy="-666" rx="27" ry="18"/>
<text text-anchor="middle" x="999" y="-660.95" font-family="Times,serif" font-size="14.00">VG</text>
</g>
<!-- LX&#45;&gt;VG -->
<g id="edge103" class="edge">
<title>LX&#45;&gt;VG</title>
<path fill="none" stroke="black" d="M750.34,-733.13C794.94,-726.15 887.8,-709.73 963,-684 964.71,-683.42 966.44,-682.77 968.18,-682.09"/>
<polygon fill="black" stroke="black" points="969.2,-685.03 977.01,-677.87 966.44,-678.6 969.2,-685.03"/>
</g>
<!-- tr -->
<g id="node10" class="node">
<title>tr</title>
<ellipse fill="none" stroke="black" cx="1677" cy="-18" rx="27" ry="18"/>
<text text-anchor="middle" x="1677" y="-12.95" font-family="Times,serif" font-size="14.00">tr</text>
</g>
<!-- SD -->
<g id="node11" class="node">
<title>SD</title>
<ellipse fill="none" stroke="black" cx="1821" cy="-810" rx="27" ry="18"/>
<text text-anchor="middle" x="1821" y="-804.95" font-family="Times,serif" font-size="14.00">SD</text>
</g>
<!-- tr&#45;&gt;SD -->
<g id="edge6" class="edge">
<title>tr&#45;&gt;SD</title>
<path fill="none" stroke="black" d="M1671.67,-35.85C1663.8,-62.25 1650,-115.08 1650,-161 1650,-667 1650,-667 1650,-667 1650,-713.04 1668.63,-725.37 1703,-756 1726.77,-777.18 1760.39,-791.15 1785.67,-799.41"/>
<polygon fill="black" stroke="black" points="1784.35,-802.98 1794.94,-802.6 1786.43,-796.29 1784.35,-802.98"/>
</g>
<!-- zn -->
<g id="node39" class="node">
<title>zn</title>
<ellipse fill="none" stroke="black" cx="1838" cy="-234" rx="27" ry="18"/>
<text text-anchor="middle" x="1838" y="-228.95" font-family="Times,serif" font-size="14.00">zn</text>
</g>
<!-- SD&#45;&gt;zn -->
<g id="edge94" class="edge">
<title>SD&#45;&gt;zn</title>
<path fill="none" stroke="black" d="M1847.98,-807.12C1907.33,-802.44 2046.54,-788.21 2079,-756 2107.71,-727.51 2098,-707.45 2098,-667 2098,-667 2098,-667 2098,-377 2098,-276.92 1947.78,-246.94 1875.71,-238.32"/>
<polygon fill="black" stroke="black" points="1876.17,-234.74 1865.85,-237.11 1875.4,-241.69 1876.17,-234.74"/>
</g>
<!-- mh -->
<g id="node41" class="node">
<title>mh</title>
<ellipse fill="none" stroke="black" cx="1821" cy="-882" rx="27" ry="18"/>
<text text-anchor="middle" x="1821" y="-876.95" font-family="Times,serif" font-size="14.00">mh</text>
</g>
<!-- SD&#45;&gt;mh -->
<g id="edge95" class="edge">
<title>SD&#45;&gt;mh</title>
<path fill="none" stroke="black" d="M1826.86,-827.79C1827.68,-835.42 1827.93,-844.65 1827.62,-853.27"/>
<polygon fill="black" stroke="black" points="1824.07,-852.84 1826.88,-863.05 1831.06,-853.32 1824.07,-852.84"/>
</g>
<!-- xs -->
<g id="node42" class="node">
<title>xs</title>
<ellipse fill="none" stroke="black" cx="2043" cy="-738" rx="27" ry="18"/>
<text text-anchor="middle" x="2043" y="-732.95" font-family="Times,serif" font-size="14.00">xs</text>
</g>
<!-- SD&#45;&gt;xs -->
<g id="edge96" class="edge">
<title>SD&#45;&gt;xs</title>
<path fill="none" stroke="black" d="M1846.16,-802.56C1881.37,-793.33 1947.19,-775.32 2002,-756 2004.93,-754.97 2007.95,-753.84 2010.97,-752.67"/>
<polygon fill="black" stroke="black" points="2012.07,-755.6 2020.04,-748.62 2009.46,-749.1 2012.07,-755.6"/>
</g>
<!-- sh -->
<g id="node47" class="node">
<title>sh</title>
<ellipse fill="none" stroke="black" cx="1895" cy="-666" rx="27" ry="18"/>
<text text-anchor="middle" x="1895" y="-660.95" font-family="Times,serif" font-size="14.00">sh</text>
</g>
<!-- SD&#45;&gt;sh -->
<g id="edge97" class="edge">
<title>SD&#45;&gt;sh</title>
<path fill="none" stroke="black" d="M1831.65,-793.07C1838.39,-782.71 1847.11,-768.79 1854,-756 1865.01,-735.57 1875.93,-711.63 1883.73,-693.73"/>
<polygon fill="black" stroke="black" points="1887.31,-695.27 1888.05,-684.71 1880.88,-692.51 1887.31,-695.27"/>
</g>
<!-- xf -->
<g id="node50" class="node">
<title>xf</title>
<ellipse fill="none" stroke="black" cx="1895" cy="-378" rx="27" ry="18"/>
<text text-anchor="middle" x="1895" y="-372.95" font-family="Times,serif" font-size="14.00">xf</text>
</g>
<!-- SD&#45;&gt;xf -->
<g id="edge98" class="edge">
<title>SD&#45;&gt;xf</title>
<path fill="none" stroke="black" d="M1844.93,-801.3C1891.1,-784.76 1988,-741.21 1988,-667 1988,-667 1988,-667 1988,-521 1988,-471.06 1947.24,-425.01 1919.69,-399.59"/>
<polygon fill="black" stroke="black" points="1922.42,-397.43 1912.63,-393.38 1917.75,-402.65 1922.42,-397.43"/>
</g>
<!-- TX -->
<g id="node58" class="node">
<title>TX</title>
<ellipse fill="none" stroke="black" cx="1595" cy="-738" rx="27" ry="18"/>
<text text-anchor="middle" x="1595" y="-732.95" font-family="Times,serif" font-size="14.00">TX</text>
</g>
<!-- SD&#45;&gt;TX -->
<g id="edge99" class="edge">
<title>SD&#45;&gt;TX</title>
<path fill="none" stroke="black" d="M1795.88,-802.78C1760.03,-793.67 1692.3,-775.67 1636,-756 1633.07,-754.98 1630.04,-753.85 1627.02,-752.69"/>
<polygon fill="black" stroke="black" points="1628.54,-749.12 1617.95,-748.64 1625.93,-755.62 1628.54,-749.12"/>
</g>
<!-- vn -->
<g id="node12" class="node">
<title>vn</title>
<ellipse fill="none" stroke="black" cx="179" cy="-378" rx="27" ry="18"/>
<text text-anchor="middle" x="179" y="-372.95" font-family="Times,serif" font-size="14.00">vn</text>
</g>
<!-- vn&#45;&gt;ql -->
<g id="edge7" class="edge">
<title>vn&#45;&gt;ql</title>
<path fill="none" stroke="black" d="M185.64,-360.41C188.84,-352.39 192.77,-342.57 196.38,-333.54"/>
<polygon fill="black" stroke="black" points="199.95,-335.05 200.41,-324.47 193.45,-332.45 199.95,-335.05"/>
</g>
<!-- vn&#45;&gt;QZ -->
<g id="edge8" class="edge">
<title>vn&#45;&gt;QZ</title>
<path fill="none" stroke="black" d="M182.36,-395.97C187.31,-422.52 196,-475.56 196,-521 196,-595 196,-595 196,-595 196,-635.97 203.66,-646.43 220,-684 224.21,-693.68 229.99,-703.66 235.54,-712.32"/>
<polygon fill="black" stroke="black" points="233.15,-714.05 241.61,-720.44 238.98,-710.17 233.15,-714.05"/>
</g>
<!-- kg -->
<g id="node13" class="node">
<title>kg</title>
<ellipse fill="none" stroke="black" cx="1375" cy="-666" rx="27" ry="18"/>
<text text-anchor="middle" x="1375" y="-660.95" font-family="Times,serif" font-size="14.00">kg</text>
</g>
<!-- xz -->
<g id="node14" class="node">
<title>xz</title>
<ellipse fill="none" stroke="black" cx="1337" cy="-594" rx="27" ry="18"/>
<text text-anchor="middle" x="1337" y="-588.95" font-family="Times,serif" font-size="14.00">xz</text>
</g>
<!-- kg&#45;&gt;xz -->
<g id="edge9" class="edge">
<title>kg&#45;&gt;xz</title>
<path fill="none" stroke="black" d="M1366.19,-648.76C1361.68,-640.46 1356.08,-630.15 1351,-620.79"/>
<polygon fill="black" stroke="black" points="1353.61,-619.27 1345.77,-612.15 1347.46,-622.61 1353.61,-619.27"/>
</g>
<!-- xz&#45;&gt;DB -->
<g id="edge63" class="edge">
<title>xz&#45;&gt;DB</title>
<path fill="none" stroke="black" d="M1334.44,-612.01C1329.54,-642 1317.39,-705.86 1296,-756 1291.86,-765.71 1286.1,-775.7 1280.54,-784.35"/>
<polygon fill="black" stroke="black" points="1277.1,-782.2 1274.46,-792.46 1282.92,-786.09 1277.1,-782.2"/>
</g>
<!-- zs -->
<g id="node52" class="node">
<title>zs</title>
<ellipse fill="none" stroke="black" cx="1318" cy="-522" rx="27" ry="18"/>
<text text-anchor="middle" x="1318" y="-516.95" font-family="Times,serif" font-size="14.00">zs</text>
</g>
<!-- xz&#45;&gt;zs -->
<g id="edge64" class="edge">
<title>xz&#45;&gt;zs</title>
<path fill="none" stroke="black" d="M1332.4,-576.05C1330.3,-568.32 1327.76,-558.96 1325.4,-550.27"/>
<polygon fill="black" stroke="black" points="1328.55,-549.52 1322.56,-540.79 1321.8,-551.36 1328.55,-549.52"/>
</g>
<!-- gs -->
<g id="node16" class="node">
<title>gs</title>
<ellipse fill="none" stroke="black" cx="65" cy="-594" rx="27" ry="18"/>
<text text-anchor="middle" x="65" y="-588.95" font-family="Times,serif" font-size="14.00">gs</text>
</g>
<!-- sj&#45;&gt;gs -->
<g id="edge10" class="edge">
<title>sj&#45;&gt;gs</title>
<path fill="none" stroke="black" d="M35.81,-648.76C40.32,-640.46 45.92,-630.15 51,-620.79"/>
<polygon fill="black" stroke="black" points="54.54,-622.61 56.23,-612.15 48.39,-619.27 54.54,-622.61"/>
</g>
<!-- gs&#45;&gt;QZ -->
<g id="edge22" class="edge">
<title>gs&#45;&gt;QZ</title>
<path fill="none" stroke="black" d="M68.65,-612.11C73.74,-632 84.82,-664.56 106,-684 136.71,-712.18 183.5,-725.63 216.01,-731.87"/>
<polygon fill="black" stroke="black" points="214.99,-735.42 225.45,-733.73 216.21,-728.53 214.99,-735.42"/>
</g>
<!-- gq -->
<g id="node30" class="node">
<title>gq</title>
<ellipse fill="none" stroke="black" cx="103" cy="-522" rx="27" ry="18"/>
<text text-anchor="middle" x="103" y="-516.95" font-family="Times,serif" font-size="14.00">gq</text>
</g>
<!-- gs&#45;&gt;gq -->
<g id="edge23" class="edge">
<title>gs&#45;&gt;gq</title>
<path fill="none" stroke="black" d="M73.81,-576.76C78.32,-568.46 83.92,-558.15 89,-548.79"/>
<polygon fill="black" stroke="black" points="92.54,-550.61 94.23,-540.15 86.39,-547.27 92.54,-550.61"/>
</g>
<!-- BQ -->
<g id="node17" class="node">
<title>BQ</title>
<ellipse fill="none" stroke="black" cx="1015" cy="-594" rx="27" ry="18"/>
<text text-anchor="middle" x="1015" y="-588.95" font-family="Times,serif" font-size="14.00">BQ</text>
</g>
<!-- output -->
<g id="node18" class="node">
<title>output</title>
<ellipse fill="none" stroke="black" cx="1015" cy="-522" rx="34.46" ry="18"/>
<text text-anchor="middle" x="1015" y="-516.95" font-family="Times,serif" font-size="14.00">output</text>
</g>
<!-- BQ&#45;&gt;output -->
<g id="edge11" class="edge">
<title>BQ&#45;&gt;output</title>
<path fill="none" stroke="black" d="M1015,-575.7C1015,-568.24 1015,-559.32 1015,-550.97"/>
<polygon fill="black" stroke="black" points="1018.5,-551.1 1015,-541.1 1011.5,-551.1 1018.5,-551.1"/>
</g>
<!-- xm -->
<g id="node20" class="node">
<title>xm</title>
<ellipse fill="none" stroke="black" cx="741" cy="-594" rx="27" ry="18"/>
<text text-anchor="middle" x="741" y="-588.95" font-family="Times,serif" font-size="14.00">xm</text>
</g>
<!-- hf&#45;&gt;xm -->
<g id="edge12" class="edge">
<title>hf&#45;&gt;xm</title>
<path fill="none" stroke="black" d="M903.82,-656.28C871.15,-643.98 811.4,-621.49 774.07,-607.45"/>
<polygon fill="black" stroke="black" points="775.77,-603.97 765.18,-603.72 773.31,-610.52 775.77,-603.97"/>
</g>
<!-- xm&#45;&gt;LX -->
<g id="edge67" class="edge">
<title>xm&#45;&gt;LX</title>
<path fill="none" stroke="black" d="M738.95,-612.11C736.08,-636.14 730.81,-680.15 727.35,-708.99"/>
<polygon fill="black" stroke="black" points="723.8,-708.24 726.08,-718.59 730.75,-709.07 723.8,-708.24"/>
</g>
<!-- kh -->
<g id="node53" class="node">
<title>kh</title>
<ellipse fill="none" stroke="black" cx="703" cy="-522" rx="27" ry="18"/>
<text text-anchor="middle" x="703" y="-516.95" font-family="Times,serif" font-size="14.00">kh</text>
</g>
<!-- xm&#45;&gt;kh -->
<g id="edge68" class="edge">
<title>xm&#45;&gt;kh</title>
<path fill="none" stroke="black" d="M732.19,-576.76C727.68,-568.46 722.08,-558.15 717,-548.79"/>
<polygon fill="black" stroke="black" points="719.61,-547.27 711.77,-540.15 713.46,-550.61 719.61,-547.27"/>
</g>
<!-- mq&#45;&gt;DB -->
<g id="edge76" class="edge">
<title>mq&#45;&gt;DB</title>
<path fill="none" stroke="black" d="M1158.89,-179.7C1148.4,-205.89 1130,-258.46 1130,-305 1130,-667 1130,-667 1130,-667 1130,-726.47 1192.92,-771.31 1232.21,-793.51"/>
<polygon fill="black" stroke="black" points="1230.18,-796.94 1240.63,-798.66 1233.53,-790.8 1230.18,-796.94"/>
</g>
<!-- bh -->
<g id="node33" class="node">
<title>bh</title>
<ellipse fill="none" stroke="black" cx="1166" cy="-90" rx="27" ry="18"/>
<text text-anchor="middle" x="1166" y="-84.95" font-family="Times,serif" font-size="14.00">bh</text>
</g>
<!-- mq&#45;&gt;bh -->
<g id="edge77" class="edge">
<title>mq&#45;&gt;bh</title>
<path fill="none" stroke="black" d="M1166,-143.7C1166,-136.24 1166,-127.32 1166,-118.97"/>
<polygon fill="black" stroke="black" points="1169.5,-119.1 1166,-109.1 1162.5,-119.1 1169.5,-119.1"/>
</g>
<!-- DB&#45;&gt;gz -->
<g id="edge56" class="edge">
<title>DB&#45;&gt;gz</title>
<path fill="none" stroke="black" d="M1252.01,-793.22C1235.45,-767.85 1206,-715.88 1206,-667 1206,-667 1206,-667 1206,-449 1206,-409.07 1212.71,-363.26 1217.7,-334.72"/>
<polygon fill="black" stroke="black" points="1221.31,-335.43 1219.64,-324.97 1214.42,-334.19 1221.31,-335.43"/>
</g>
<!-- DB&#45;&gt;kg -->
<g id="edge57" class="edge">
<title>DB&#45;&gt;kg</title>
<path fill="none" stroke="black" d="M1283.23,-797.72C1298.76,-788.24 1319.87,-773.45 1334,-756 1348.86,-737.65 1359.65,-713.05 1366.43,-694.36"/>
<polygon fill="black" stroke="black" points="1370,-695.72 1369.95,-685.13 1363.38,-693.44 1370,-695.72"/>
</g>
<!-- sp -->
<g id="node31" class="node">
<title>sp</title>
<ellipse fill="none" stroke="black" cx="1263" cy="-882" rx="27" ry="18"/>
<text text-anchor="middle" x="1263" y="-876.95" font-family="Times,serif" font-size="14.00">sp</text>
</g>
<!-- DB&#45;&gt;sp -->
<g id="edge58" class="edge">
<title>DB&#45;&gt;sp</title>
<path fill="none" stroke="black" d="M1268.86,-827.79C1269.68,-835.42 1269.93,-844.65 1269.62,-853.27"/>
<polygon fill="black" stroke="black" points="1266.07,-852.84 1268.88,-863.05 1273.06,-853.32 1266.07,-852.84"/>
</g>
<!-- jh -->
<g id="node32" class="node">
<title>jh</title>
<ellipse fill="none" stroke="black" cx="1523" cy="-738" rx="27" ry="18"/>
<text text-anchor="middle" x="1523" y="-732.95" font-family="Times,serif" font-size="14.00">jh</text>
</g>
<!-- DB&#45;&gt;jh -->
<g id="edge59" class="edge">
<title>DB&#45;&gt;jh</title>
<path fill="none" stroke="black" d="M1288.99,-804.08C1330.37,-795.93 1413.57,-778.32 1482,-756 1484.95,-755.04 1487.99,-753.96 1491.02,-752.82"/>
<polygon fill="black" stroke="black" points="1492.1,-755.76 1500.11,-748.82 1489.52,-749.25 1492.1,-755.76"/>
</g>
<!-- fx -->
<g id="node36" class="node">
<title>fx</title>
<ellipse fill="none" stroke="black" cx="1318" cy="-450" rx="27" ry="18"/>
<text text-anchor="middle" x="1318" y="-444.95" font-family="Times,serif" font-size="14.00">fx</text>
</g>
<!-- DB&#45;&gt;fx -->
<g id="edge60" class="edge">
<title>DB&#45;&gt;fx</title>
<path fill="none" stroke="black" d="M1286.93,-801.3C1333.1,-784.76 1430,-741.21 1430,-667 1430,-667 1430,-667 1430,-593 1430,-538.9 1379.26,-493.3 1346.09,-469.26"/>
<polygon fill="black" stroke="black" points="1348.45,-465.94 1338.25,-463.07 1344.43,-471.67 1348.45,-465.94"/>
</g>
<!-- KP -->
<g id="node49" class="node">
<title>KP</title>
<ellipse fill="none" stroke="black" cx="1037" cy="-738" rx="27" ry="18"/>
<text text-anchor="middle" x="1037" y="-732.95" font-family="Times,serif" font-size="14.00">KP</text>
</g>
<!-- DB&#45;&gt;KP -->
<g id="edge61" class="edge">
<title>DB&#45;&gt;KP</title>
<path fill="none" stroke="black" d="M1237.88,-802.78C1202.03,-793.67 1134.3,-775.67 1078,-756 1075.07,-754.98 1072.04,-753.85 1069.02,-752.69"/>
<polygon fill="black" stroke="black" points="1070.54,-749.12 1059.95,-748.64 1067.93,-755.62 1070.54,-749.12"/>
</g>
<!-- gf -->
<g id="node23" class="node">
<title>gf</title>
<ellipse fill="none" stroke="black" cx="665" cy="-450" rx="27" ry="18"/>
<text text-anchor="middle" x="665" y="-444.95" font-family="Times,serif" font-size="14.00">gf</text>
</g>
<!-- gf&#45;&gt;LX -->
<g id="edge15" class="edge">
<title>gf&#45;&gt;LX</title>
<path fill="none" stroke="black" d="M664.2,-468.16C663.63,-486.15 663.5,-515.21 667,-540 676.25,-605.54 685.37,-620.79 705,-684 707.66,-692.57 710.86,-701.8 713.86,-710.13"/>
<polygon fill="black" stroke="black" points="710.9,-711.24 717.64,-719.41 717.48,-708.82 710.9,-711.24"/>
</g>
<!-- gf&#45;&gt;fn -->
<g id="edge16" class="edge">
<title>gf&#45;&gt;fn</title>
<path fill="none" stroke="black" d="M660.4,-432.05C658.3,-424.32 655.76,-414.96 653.4,-406.27"/>
<polygon fill="black" stroke="black" points="656.55,-405.52 650.56,-396.79 649.8,-407.36 656.55,-405.52"/>
</g>
<!-- bm -->
<g id="node27" class="node">
<title>bm</title>
<ellipse fill="none" stroke="black" cx="646" cy="-306" rx="27" ry="18"/>
<text text-anchor="middle" x="646" y="-300.95" font-family="Times,serif" font-size="14.00">bm</text>
</g>
<!-- fn&#45;&gt;bm -->
<g id="edge71" class="edge">
<title>fn&#45;&gt;bm</title>
<path fill="none" stroke="black" d="M646,-359.7C646,-352.24 646,-343.32 646,-334.97"/>
<polygon fill="black" stroke="black" points="649.5,-335.1 646,-325.1 642.5,-335.1 649.5,-335.1"/>
</g>
<!-- zt&#45;&gt;sk -->
<g id="edge17" class="edge">
<title>zt&#45;&gt;sk</title>
<path fill="none" stroke="black" d="M360.98,-506.83C371.34,-497.03 385.32,-483.8 397.08,-472.68"/>
<polygon fill="black" stroke="black" points="398.93,-475.8 403.79,-466.38 394.12,-470.71 398.93,-475.8"/>
</g>
<!-- sk&#45;&gt;nd -->
<g id="edge37" class="edge">
<title>sk&#45;&gt;nd</title>
<path fill="none" stroke="black" d="M428.75,-467.27C433.92,-477.53 440.18,-491.23 444,-504 455.47,-542.36 458,-552.96 458,-593 458,-667 458,-667 458,-667 458,-758.72 360.26,-832.3 310.04,-864.05"/>
<polygon fill="black" stroke="black" points="308.63,-861.42 301.96,-869.66 312.31,-867.38 308.63,-861.42"/>
</g>
<!-- bm&#45;&gt;LX -->
<g id="edge18" class="edge">
<title>bm&#45;&gt;LX</title>
<path fill="none" stroke="black" d="M668.78,-315.99C710.74,-334.23 796,-379.79 796,-449 796,-523 796,-523 796,-523 796,-594.07 759.89,-671.81 738.81,-711.12"/>
<polygon fill="black" stroke="black" points="735.3,-709.26 733.56,-719.71 741.44,-712.62 735.3,-709.26"/>
</g>
<!-- cp -->
<g id="node28" class="node">
<title>cp</title>
<ellipse fill="none" stroke="black" cx="589" cy="-234" rx="27" ry="18"/>
<text text-anchor="middle" x="589" y="-228.95" font-family="Times,serif" font-size="14.00">cp</text>
</g>
<!-- bm&#45;&gt;cp -->
<g id="edge19" class="edge">
<title>bm&#45;&gt;cp</title>
<path fill="none" stroke="black" d="M633.63,-289.81C626.16,-280.64 616.49,-268.76 608.06,-258.4"/>
<polygon fill="black" stroke="black" points="610.37,-256.7 601.34,-251.16 604.94,-261.12 610.37,-256.7"/>
</g>
<!-- cp&#45;&gt;LX -->
<g id="edge20" class="edge">
<title>cp&#45;&gt;LX</title>
<path fill="none" stroke="black" d="M585.64,-251.97C580.69,-278.52 572,-331.56 572,-377 572,-595 572,-595 572,-595 572,-640.37 589.4,-652.45 622,-684 641.35,-702.73 668.63,-716.43 690.12,-725.21"/>
<polygon fill="black" stroke="black" points="688.55,-728.75 699.14,-729.13 691.1,-722.23 688.55,-728.75"/>
</g>
<!-- gb -->
<g id="node29" class="node">
<title>gb</title>
<ellipse fill="none" stroke="black" cx="570" cy="-162" rx="27" ry="18"/>
<text text-anchor="middle" x="570" y="-156.95" font-family="Times,serif" font-size="14.00">gb</text>
</g>
<!-- cp&#45;&gt;gb -->
<g id="edge21" class="edge">
<title>cp&#45;&gt;gb</title>
<path fill="none" stroke="black" d="M584.4,-216.05C582.3,-208.32 579.76,-198.96 577.4,-190.27"/>
<polygon fill="black" stroke="black" points="580.55,-189.52 574.56,-180.79 573.8,-191.36 580.55,-189.52"/>
</g>
<!-- gb&#45;&gt;LX -->
<g id="edge91" class="edge">
<title>gb&#45;&gt;LX</title>
<path fill="none" stroke="black" d="M562.89,-179.7C552.4,-205.89 534,-258.46 534,-305 534,-595 534,-595 534,-595 534,-640.15 548.86,-654.45 583,-684 612.76,-709.76 656.27,-723.55 687.07,-730.54"/>
<polygon fill="black" stroke="black" points="686.28,-734.17 696.79,-732.82 687.74,-727.32 686.28,-734.17"/>
</g>
<!-- dl -->
<g id="node56" class="node">
<title>dl</title>
<ellipse fill="none" stroke="black" cx="570" cy="-90" rx="27" ry="18"/>
<text text-anchor="middle" x="570" y="-84.95" font-family="Times,serif" font-size="14.00">dl</text>
</g>
<!-- gb&#45;&gt;dl -->
<g id="edge92" class="edge">
<title>gb&#45;&gt;dl</title>
<path fill="none" stroke="black" d="M570,-143.7C570,-136.24 570,-127.32 570,-118.97"/>
<polygon fill="black" stroke="black" points="573.5,-119.1 570,-109.1 566.5,-119.1 573.5,-119.1"/>
</g>
<!-- gq&#45;&gt;QZ -->
<g id="edge31" class="edge">
<title>gq&#45;&gt;QZ</title>
<path fill="none" stroke="black" d="M102.85,-540.36C103.47,-572.33 109.11,-641.18 144,-684 162.44,-706.63 192.91,-720.3 216.96,-728.07"/>
<polygon fill="black" stroke="black" points="215.9,-731.71 226.48,-731.24 217.92,-725.01 215.9,-731.71"/>
</g>
<!-- xb -->
<g id="node35" class="node">
<title>xb</title>
<ellipse fill="none" stroke="black" cx="141" cy="-450" rx="27" ry="18"/>
<text text-anchor="middle" x="141" y="-444.95" font-family="Times,serif" font-size="14.00">xb</text>
</g>
<!-- gq&#45;&gt;xb -->
<g id="edge32" class="edge">
<title>gq&#45;&gt;xb</title>
<path fill="none" stroke="black" d="M111.81,-504.76C116.32,-496.46 121.92,-486.15 127,-476.79"/>
<polygon fill="black" stroke="black" points="130.54,-478.61 132.23,-468.15 124.39,-475.27 130.54,-478.61"/>
</g>
<!-- sp&#45;&gt;DB -->
<g id="edge24" class="edge">
<title>sp&#45;&gt;DB</title>
<path fill="none" stroke="black" d="M1257.12,-864.05C1256.31,-856.4 1256.06,-847.16 1256.39,-838.56"/>
<polygon fill="black" stroke="black" points="1259.93,-839.01 1257.14,-828.79 1252.95,-838.52 1259.93,-839.01"/>
</g>
<!-- sp&#45;&gt;jh -->
<g id="edge25" class="edge">
<title>sp&#45;&gt;jh</title>
<path fill="none" stroke="black" d="M1283.4,-869.86C1329.06,-844.92 1439.66,-784.52 1493.1,-755.33"/>
<polygon fill="black" stroke="black" points="1494.59,-757.96 1501.69,-750.09 1491.24,-751.81 1494.59,-757.96"/>
</g>
<!-- jh&#45;&gt;kg -->
<g id="edge49" class="edge">
<title>jh&#45;&gt;kg</title>
<path fill="none" stroke="black" d="M1501.48,-726.82C1476.49,-715 1435.05,-695.4 1406.45,-681.87"/>
<polygon fill="black" stroke="black" points="1408.08,-678.3 1397.55,-677.19 1405.09,-684.63 1408.08,-678.3"/>
</g>
<!-- bh&#45;&gt;DB -->
<g id="edge26" class="edge">
<title>bh&#45;&gt;DB</title>
<path fill="none" stroke="black" d="M1152.08,-105.84C1130.65,-130.32 1092,-181.57 1092,-233 1092,-667 1092,-667 1092,-667 1092,-713.04 1110.63,-725.37 1145,-756 1168.77,-777.18 1202.39,-791.15 1227.67,-799.41"/>
<polygon fill="black" stroke="black" points="1226.35,-802.98 1236.94,-802.6 1228.43,-796.29 1226.35,-802.98"/>
</g>
<!-- kr -->
<g id="node34" class="node">
<title>kr</title>
<ellipse fill="none" stroke="black" cx="1327" cy="-18" rx="27" ry="18"/>
<text text-anchor="middle" x="1327" y="-12.95" font-family="Times,serif" font-size="14.00">kr</text>
</g>
<!-- bh&#45;&gt;kr -->
<g id="edge27" class="edge">
<title>bh&#45;&gt;kr</title>
<path fill="none" stroke="black" d="M1188.39,-79.27C1216.02,-67.25 1263.22,-46.73 1294.76,-33.02"/>
<polygon fill="black" stroke="black" points="1296.03,-35.85 1303.8,-28.65 1293.24,-29.43 1296.03,-35.85"/>
</g>
<!-- kr&#45;&gt;DB -->
<g id="edge62" class="edge">
<title>kr&#45;&gt;DB</title>
<path fill="none" stroke="black" d="M1351.51,-25.81C1400.54,-41.1 1506,-83.05 1506,-161 1506,-595 1506,-595 1506,-595 1506,-679.23 1471.24,-702.71 1406,-756 1374.91,-781.4 1330.48,-795.3 1299.43,-802.42"/>
<polygon fill="black" stroke="black" points="1299.08,-799.13 1290.04,-804.66 1300.56,-805.97 1299.08,-799.13"/>
</g>
<!-- xb&#45;&gt;QZ -->
<g id="edge28" class="edge">
<title>xb&#45;&gt;QZ</title>
<path fill="none" stroke="black" d="M139.9,-468.3C138.12,-509.12 138.5,-613.35 182,-684 191.66,-699.69 207.82,-712.3 222.28,-721.27"/>
<polygon fill="black" stroke="black" points="220.06,-724.61 230.46,-726.65 223.6,-718.57 220.06,-724.61"/>
</g>
<!-- xb&#45;&gt;vn -->
<g id="edge29" class="edge">
<title>xb&#45;&gt;vn</title>
<path fill="none" stroke="black" d="M149.81,-432.76C154.32,-424.46 159.92,-414.15 165,-404.79"/>
<polygon fill="black" stroke="black" points="168.54,-406.61 170.23,-396.15 162.39,-403.27 168.54,-406.61"/>
</g>
<!-- qf -->
<g id="node37" class="node">
<title>qf</title>
<ellipse fill="none" stroke="black" cx="1261" cy="-378" rx="27" ry="18"/>
<text text-anchor="middle" x="1261" y="-372.95" font-family="Times,serif" font-size="14.00">qf</text>
</g>
<!-- fx&#45;&gt;qf -->
<g id="edge30" class="edge">
<title>fx&#45;&gt;qf</title>
<path fill="none" stroke="black" d="M1305.63,-433.81C1298.16,-424.64 1288.49,-412.76 1280.06,-402.4"/>
<polygon fill="black" stroke="black" points="1282.37,-400.7 1273.34,-395.16 1276.94,-405.12 1282.37,-400.7"/>
</g>
<!-- qf&#45;&gt;gz -->
<g id="edge69" class="edge">
<title>qf&#45;&gt;gz</title>
<path fill="none" stroke="black" d="M1252.19,-360.76C1247.68,-352.46 1242.08,-342.15 1237,-332.79"/>
<polygon fill="black" stroke="black" points="1239.61,-331.27 1231.77,-324.15 1233.46,-334.61 1239.61,-331.27"/>
</g>
<!-- qf&#45;&gt;DB -->
<g id="edge70" class="edge">
<title>qf&#45;&gt;DB</title>
<path fill="none" stroke="black" d="M1257.64,-395.97C1252.69,-422.52 1244,-475.56 1244,-521 1244,-667 1244,-667 1244,-667 1244,-707 1251.5,-752.79 1257.08,-781.31"/>
<polygon fill="black" stroke="black" points="1253.83,-781.94 1259.25,-791.05 1260.7,-780.55 1253.83,-781.94"/>
</g>
<!-- xp -->
<g id="node38" class="node">
<title>xp</title>
<ellipse fill="none" stroke="black" cx="1838" cy="-306" rx="27" ry="18"/>
<text text-anchor="middle" x="1838" y="-300.95" font-family="Times,serif" font-size="14.00">xp</text>
</g>
<!-- xp&#45;&gt;SD -->
<g id="edge33" class="edge">
<title>xp&#45;&gt;SD</title>
<path fill="none" stroke="black" d="M1824.08,-321.84C1802.65,-346.32 1764,-397.57 1764,-449 1764,-667 1764,-667 1764,-667 1764,-710.53 1787.36,-756.52 1804.17,-783.98"/>
<polygon fill="black" stroke="black" points="1801.71,-785.64 1810.01,-792.22 1807.62,-781.9 1801.71,-785.64"/>
</g>
<!-- xp&#45;&gt;zn -->
<g id="edge34" class="edge">
<title>xp&#45;&gt;zn</title>
<path fill="none" stroke="black" d="M1838,-287.7C1838,-280.24 1838,-271.32 1838,-262.97"/>
<polygon fill="black" stroke="black" points="1841.5,-263.1 1838,-253.1 1834.5,-263.1 1841.5,-263.1"/>
</g>
<!-- cv -->
<g id="node51" class="node">
<title>cv</title>
<ellipse fill="none" stroke="black" cx="1743" cy="-162" rx="27" ry="18"/>
<text text-anchor="middle" x="1743" y="-156.95" font-family="Times,serif" font-size="14.00">cv</text>
</g>
<!-- zn&#45;&gt;cv -->
<g id="edge78" class="edge">
<title>zn&#45;&gt;cv</title>
<path fill="none" stroke="black" d="M1820.58,-220.16C1806.2,-209.57 1785.59,-194.38 1769.22,-182.32"/>
<polygon fill="black" stroke="black" points="1771.76,-179.11 1761.64,-175.99 1767.61,-184.74 1771.76,-179.11"/>
</g>
<!-- hl -->
<g id="node40" class="node">
<title>hl</title>
<ellipse fill="none" stroke="black" cx="1705" cy="-90" rx="27" ry="18"/>
<text text-anchor="middle" x="1705" y="-84.95" font-family="Times,serif" font-size="14.00">hl</text>
</g>
<!-- hl&#45;&gt;tr -->
<g id="edge35" class="edge">
<title>hl&#45;&gt;tr</title>
<path fill="none" stroke="black" d="M1698.36,-72.41C1695.16,-64.39 1691.23,-54.57 1687.62,-45.54"/>
<polygon fill="black" stroke="black" points="1690.55,-44.45 1683.59,-36.47 1684.05,-47.05 1690.55,-44.45"/>
</g>
<!-- hl&#45;&gt;SD -->
<g id="edge36" class="edge">
<title>hl&#45;&gt;SD</title>
<path fill="none" stroke="black" d="M1701.64,-107.97C1696.69,-134.52 1688,-187.56 1688,-233 1688,-667 1688,-667 1688,-667 1688,-726.47 1750.92,-771.31 1790.21,-793.51"/>
<polygon fill="black" stroke="black" points="1788.18,-796.94 1798.63,-798.66 1791.53,-790.8 1788.18,-796.94"/>
</g>
<!-- mh&#45;&gt;SD -->
<g id="edge38" class="edge">
<title>mh&#45;&gt;SD</title>
<path fill="none" stroke="black" d="M1815.12,-864.05C1814.31,-856.4 1814.06,-847.16 1814.39,-838.56"/>
<polygon fill="black" stroke="black" points="1817.93,-839.01 1815.14,-828.79 1810.95,-838.52 1817.93,-839.01"/>
</g>
<!-- mh&#45;&gt;xs -->
<g id="edge39" class="edge">
<title>mh&#45;&gt;xs</title>
<path fill="none" stroke="black" d="M1839.93,-868.89C1879.08,-843.85 1969.15,-786.24 2015.03,-756.89"/>
<polygon fill="black" stroke="black" points="2016.58,-759.41 2023.12,-751.08 2012.81,-753.52 2016.58,-759.41"/>
</g>
<!-- xs&#45;&gt;sh -->
<g id="edge90" class="edge">
<title>xs&#45;&gt;sh</title>
<path fill="none" stroke="black" d="M2021.48,-726.82C1996.49,-715 1955.05,-695.4 1926.45,-681.87"/>
<polygon fill="black" stroke="black" points="1928.08,-678.3 1917.55,-677.19 1925.09,-684.63 1928.08,-678.3"/>
</g>
<!-- gp&#45;&gt;zt -->
<g id="edge51" class="edge">
<title>gp&#45;&gt;zt</title>
<path fill="none" stroke="black" d="M346,-575.7C346,-568.24 346,-559.32 346,-550.97"/>
<polygon fill="black" stroke="black" points="349.5,-551.1 346,-541.1 342.5,-551.1 349.5,-551.1"/>
</g>
<!-- GC&#45;&gt;BQ -->
<g id="edge52" class="edge">
<title>GC&#45;&gt;BQ</title>
<path fill="none" stroke="black" d="M840.49,-656.7C875.4,-644.35 941.14,-621.11 981.21,-606.95"/>
<polygon fill="black" stroke="black" points="982.28,-609.93 990.54,-603.29 979.95,-603.33 982.28,-609.93"/>
</g>
<!-- vh&#45;&gt;QZ -->
<g id="edge74" class="edge">
<title>vh&#45;&gt;QZ</title>
<path fill="none" stroke="black" d="M348.5,-680.75C331.46,-692.39 304.83,-709.09 283.92,-721.26"/>
<polygon fill="black" stroke="black" points="282.42,-718.66 275.48,-726.67 285.9,-724.74 282.42,-718.66"/>
</g>
<!-- vh&#45;&gt;gp -->
<g id="edge75" class="edge">
<title>vh&#45;&gt;gp</title>
<path fill="none" stroke="black" d="M360.4,-648.05C358.3,-640.32 355.76,-630.96 353.4,-622.27"/>
<polygon fill="black" stroke="black" points="356.55,-621.52 350.56,-612.79 349.8,-623.36 356.55,-621.52"/>
</g>
<!-- VG&#45;&gt;BQ -->
<g id="edge47" class="edge">
<title>VG&#45;&gt;BQ</title>
<path fill="none" stroke="black" d="M1002.96,-647.7C1004.68,-640.15 1006.74,-631.12 1008.67,-622.68"/>
<polygon fill="black" stroke="black" points="1012.27,-623.63 1011.09,-613.1 1005.45,-622.07 1012.27,-623.63"/>
</g>
<!-- pz -->
<g id="node48" class="node">
<title>pz</title>
<ellipse fill="none" stroke="black" cx="1876" cy="-594" rx="27" ry="18"/>
<text text-anchor="middle" x="1876" y="-588.95" font-family="Times,serif" font-size="14.00">pz</text>
</g>
<!-- sh&#45;&gt;pz -->
<g id="edge48" class="edge">
<title>sh&#45;&gt;pz</title>
<path fill="none" stroke="black" d="M1890.4,-648.05C1888.3,-640.32 1885.76,-630.96 1883.4,-622.27"/>
<polygon fill="black" stroke="black" points="1886.55,-621.52 1880.56,-612.79 1879.8,-623.36 1886.55,-621.52"/>
</g>
<!-- pz&#45;&gt;SD -->
<g id="edge86" class="edge">
<title>pz&#45;&gt;SD</title>
<path fill="none" stroke="black" d="M1870.3,-611.61C1866.83,-622 1862.42,-635.71 1859,-648 1846.07,-694.53 1833.73,-749.41 1826.78,-781.58"/>
<polygon fill="black" stroke="black" points="1823.23,-780.46 1824.56,-790.97 1830.08,-781.92 1823.23,-780.46"/>
</g>
<!-- cn -->
<g id="node57" class="node">
<title>cn</title>
<ellipse fill="none" stroke="black" cx="1876" cy="-522" rx="27" ry="18"/>
<text text-anchor="middle" x="1876" y="-516.95" font-family="Times,serif" font-size="14.00">cn</text>
</g>
<!-- pz&#45;&gt;cn -->
<g id="edge87" class="edge">
<title>pz&#45;&gt;cn</title>
<path fill="none" stroke="black" d="M1876,-575.7C1876,-568.24 1876,-559.32 1876,-550.97"/>
<polygon fill="black" stroke="black" points="1879.5,-551.1 1876,-541.1 1872.5,-551.1 1879.5,-551.1"/>
</g>
<!-- KP&#45;&gt;BQ -->
<g id="edge50" class="edge">
<title>KP&#45;&gt;BQ</title>
<path fill="none" stroke="black" d="M1038.32,-719.76C1039.3,-701.69 1039.77,-672.58 1035,-648 1033.26,-639.04 1030.15,-629.61 1026.9,-621.23"/>
<polygon fill="black" stroke="black" points="1029.85,-620.19 1022.79,-612.29 1023.38,-622.87 1029.85,-620.19"/>
</g>
<!-- xf&#45;&gt;xp -->
<g id="edge53" class="edge">
<title>xf&#45;&gt;xp</title>
<path fill="none" stroke="black" d="M1882.63,-361.81C1875.16,-352.64 1865.49,-340.76 1857.06,-330.4"/>
<polygon fill="black" stroke="black" points="1859.37,-328.7 1850.34,-323.16 1853.94,-333.12 1859.37,-328.7"/>
</g>
<!-- cv&#45;&gt;SD -->
<g id="edge54" class="edge">
<title>cv&#45;&gt;SD</title>
<path fill="none" stroke="black" d="M1739.64,-179.97C1734.69,-206.52 1726,-259.56 1726,-305 1726,-667 1726,-667 1726,-667 1726,-717.27 1767.63,-763.21 1795.78,-788.53"/>
<polygon fill="black" stroke="black" points="1793.18,-791.77 1803.02,-795.7 1797.77,-786.49 1793.18,-791.77"/>
</g>
<!-- cv&#45;&gt;hl -->
<g id="edge55" class="edge">
<title>cv&#45;&gt;hl</title>
<path fill="none" stroke="black" d="M1734.19,-144.76C1729.68,-136.46 1724.08,-126.15 1719,-116.79"/>
<polygon fill="black" stroke="black" points="1721.61,-115.27 1713.77,-108.15 1715.46,-118.61 1721.61,-115.27"/>
</g>
<!-- zs&#45;&gt;DB -->
<g id="edge104" class="edge">
<title>zs&#45;&gt;DB</title>
<path fill="none" stroke="black" d="M1311.83,-540C1308.28,-550.31 1303.94,-563.79 1301,-576 1283.45,-648.98 1271.56,-736.78 1266.22,-780.85"/>
<polygon fill="black" stroke="black" points="1262.65,-780.24 1264.94,-790.58 1269.6,-781.06 1262.65,-780.24"/>
</g>
<!-- zs&#45;&gt;fx -->
<g id="edge105" class="edge">
<title>zs&#45;&gt;fx</title>
<path fill="none" stroke="black" d="M1318,-503.7C1318,-496.24 1318,-487.32 1318,-478.97"/>
<polygon fill="black" stroke="black" points="1321.5,-479.1 1318,-469.1 1314.5,-479.1 1321.5,-479.1"/>
</g>
<!-- kh&#45;&gt;LX -->
<g id="edge72" class="edge">
<title>kh&#45;&gt;LX</title>
<path fill="none" stroke="black" d="M702.73,-540.43C702.61,-558.4 702.85,-587.21 705,-612 707.92,-645.57 714.17,-683.82 718.7,-709.07"/>
<polygon fill="black" stroke="black" points="715.4,-709.49 720.65,-718.69 722.29,-708.23 715.4,-709.49"/>
</g>
<!-- kh&#45;&gt;gf -->
<g id="edge73" class="edge">
<title>kh&#45;&gt;gf</title>
<path fill="none" stroke="black" d="M694.19,-504.76C689.68,-496.46 684.08,-486.15 679,-476.79"/>
<polygon fill="black" stroke="black" points="681.61,-475.27 673.77,-468.15 675.46,-478.61 681.61,-475.27"/>
</g>
<!-- sv -->
<g id="node54" class="node">
<title>sv</title>
<ellipse fill="none" stroke="black" cx="1895" cy="-450" rx="27" ry="18"/>
<text text-anchor="middle" x="1895" y="-444.95" font-family="Times,serif" font-size="14.00">sv</text>
</g>
<!-- sv&#45;&gt;SD -->
<g id="edge79" class="edge">
<title>sv&#45;&gt;SD</title>
<path fill="none" stroke="black" d="M1905.6,-466.84C1921.59,-492.28 1950,-544.36 1950,-593 1950,-667 1950,-667 1950,-667 1950,-725.49 1889.29,-770.56 1851.17,-793.09"/>
<polygon fill="black" stroke="black" points="1849.95,-790.33 1843.01,-798.33 1853.43,-796.4 1849.95,-790.33"/>
</g>
<!-- sv&#45;&gt;xf -->
<g id="edge80" class="edge">
<title>sv&#45;&gt;xf</title>
<path fill="none" stroke="black" d="M1895,-431.7C1895,-424.24 1895,-415.32 1895,-406.97"/>
<polygon fill="black" stroke="black" points="1898.5,-407.1 1895,-397.1 1891.5,-407.1 1898.5,-407.1"/>
</g>
<!-- lh -->
<g id="node55" class="node">
<title>lh</title>
<ellipse fill="none" stroke="black" cx="721" cy="-18" rx="27" ry="18"/>
<text text-anchor="middle" x="721" y="-12.95" font-family="Times,serif" font-size="14.00">lh</text>
</g>
<!-- lh&#45;&gt;LX -->
<g id="edge81" class="edge">
<title>lh&#45;&gt;LX</title>
<path fill="none" stroke="black" d="M743.93,-27.95C786.18,-46.11 872,-91.55 872,-161 872,-595 872,-595 872,-595 872,-635.45 878.92,-652.95 853,-684 830.02,-711.52 790.46,-724.94 761.2,-731.36"/>
<polygon fill="black" stroke="black" points="760.66,-728.1 751.54,-733.49 762.03,-734.96 760.66,-728.1"/>
</g>
<!-- dl&#45;&gt;LX -->
<g id="edge82" class="edge">
<title>dl&#45;&gt;LX</title>
<path fill="none" stroke="black" d="M556.08,-105.84C534.65,-130.32 496,-181.57 496,-233 496,-595 496,-595 496,-595 496,-639.73 508.36,-655.7 543,-684 584.4,-717.82 646.62,-730.06 686.25,-734.49"/>
<polygon fill="black" stroke="black" points="685.75,-738.05 696.05,-735.56 686.44,-731.09 685.75,-738.05"/>
</g>
<!-- dl&#45;&gt;lh -->
<g id="edge83" class="edge">
<title>dl&#45;&gt;lh</title>
<path fill="none" stroke="black" d="M591.63,-78.97C617.31,-67.07 660.33,-47.12 689.66,-33.53"/>
<polygon fill="black" stroke="black" points="690.81,-36.39 698.41,-29.01 687.86,-30.04 690.81,-36.39"/>
</g>
<!-- cn&#45;&gt;SD -->
<g id="edge88" class="edge">
<title>cn&#45;&gt;SD</title>
<path fill="none" stroke="black" d="M1862.65,-538.06C1854.6,-548.08 1844.97,-561.95 1840,-576 1815.1,-646.43 1816.18,-736.02 1818.76,-780.82"/>
<polygon fill="black" stroke="black" points="1815.32,-780.96 1819.47,-790.71 1822.31,-780.51 1815.32,-780.96"/>
</g>
<!-- cn&#45;&gt;sv -->
<g id="edge89" class="edge">
<title>cn&#45;&gt;sv</title>
<path fill="none" stroke="black" d="M1880.6,-504.05C1882.7,-496.32 1885.24,-486.96 1887.6,-478.27"/>
<polygon fill="black" stroke="black" points="1891.2,-479.36 1890.44,-468.79 1884.45,-477.52 1891.2,-479.36"/>
</g>
<!-- TX&#45;&gt;BQ -->
<g id="edge93" class="edge">
<title>TX&#45;&gt;BQ</title>
<path fill="none" stroke="black" d="M1575.69,-725.09C1543.07,-705.57 1474.38,-667.04 1411,-648 1283.31,-609.65 1124.12,-599.01 1052.72,-596.09"/>
<polygon fill="black" stroke="black" points="1053.16,-592.56 1043.03,-595.68 1052.89,-599.56 1053.16,-592.56"/>
</g>
<!-- broadcast -->
<g id="node59" class="node">
<title>broadcast</title>
<ellipse fill="none" stroke="black" cx="1009" cy="-954" rx="46.23" ry="18"/>
<text text-anchor="middle" x="1009" y="-948.95" font-family="Times,serif" font-size="14.00">broadcast</text>
</g>
<!-- broadcast&#45;&gt;lg -->
<g id="edge106" class="edge">
<title>broadcast&#45;&gt;lg</title>
<path fill="none" stroke="black" d="M971.94,-942.75C923.3,-929.29 838.54,-905.84 790.96,-892.67"/>
<polygon fill="black" stroke="black" points="792.13,-889.09 781.55,-889.79 790.26,-895.83 792.13,-889.09"/>
</g>
<!-- broadcast&#45;&gt;sp -->
<g id="edge107" class="edge">
<title>broadcast&#45;&gt;sp</title>
<path fill="none" stroke="black" d="M1045.93,-942.82C1094.7,-929.38 1179.95,-905.89 1227.82,-892.7"/>
<polygon fill="black" stroke="black" points="1228.58,-895.84 1237.29,-889.81 1226.72,-889.09 1228.58,-895.84"/>
</g>
<!-- broadcast&#45;&gt;mh -->
<g id="edge108" class="edge">
<title>broadcast&#45;&gt;mh</title>
<path fill="none" stroke="black" d="M1053.81,-949.14C1198.22,-936.69 1649.73,-897.76 1783.37,-886.24"/>
<polygon fill="black" stroke="black" points="1783.57,-889.65 1793.23,-885.31 1782.97,-882.68 1783.57,-889.65"/>
</g>
<!-- broadcast&#45;&gt;vh -->
<g id="edge109" class="edge">
<title>broadcast&#45;&gt;vh</title>
<path fill="none" stroke="black" d="M963.39,-950.25C905.1,-945.49 801.92,-932.82 720,-900 583.55,-845.33 444.29,-734.46 389.38,-688.11"/>
<polygon fill="black" stroke="black" points="391.89,-684.81 382.01,-680.99 387.35,-690.14 391.89,-684.81"/>
</g>
</g>
</svg>
